<svg width="96" height="96" xmlns="http://www.w3.org/2000/svg" xmlns:xlink="http://www.w3.org/1999/xlink" xml:space="preserve" overflow="hidden"><g transform="translate(-592 -312)"><path d="M639 324.5C635.3 322.7 631.5 321.5 627.7 321 638.7 331.9 642 349 634.7 363.7 627.5 378.4 611.7 386 596.5 383.9 599.2 386.6 602.5 389 606.1 390.8 624.4 399.9 646.6 392.4 655.6 374.1 664.6 355.8 657.3 333.7 639 324.5Z"/><path d="M678.9 366.5C678.7 366.2 678.7 365.8 678.9 365.5L680.8 362.7C681 362.3 681 361.9 680.8 361.6 680.6 361.3 680.1 361.1 679.8 361.2L676.7 362C676.3 362.1 675.9 361.9 675.7 361.6L673.8 358.8C673.5 358.4 673.1 358.3 672.7 358.4 672.3 358.5 672 358.9 672 359.3L671.8 362.7C671.8 363.1 671.5 363.4 671.1 363.6L668 364.3C667.6 364.4 667.3 364.7 667.3 365.2 667.3 365.6 667.5 366 667.9 366.1L669.2 366.8 670.9 367.7C671 367.8 671.2 367.9 671.3 368.1 671.4 368.3 671.4 368.4 671.4 368.6L671.4 372C671.4 372.4 671.6 372.8 672 372.9 672.4 373 672.8 372.9 673.1 372.6L675.3 369.9C675.6 369.6 676 369.5 676.4 369.6L679.7 370.8C680.1 370.9 680.5 370.8 680.8 370.5 681.1 370.2 681.1 369.7 680.9 369.4L678.9 366.5Z"/><path d="M669.4 341.6 672.1 336.7C672.4 336.1 673 335.8 673.7 335.9L679.2 336.8C679.9 336.9 680.5 336.6 680.8 336 681.1 335.4 681 334.6 680.6 334.2L676.8 330.1C676.4 329.7 676.3 329 676.5 328.4L678.6 323.3C678.8 322.7 678.7 322 678.3 321.6 677.9 321.2 677.1 321 676.6 321.3L671.9 323.6C671.3 323.9 670.6 323.7 670.2 323.3L666.4 319.5C665.9 319 665.1 318.9 664.5 319.1 663.9 319.4 663.6 320.1 663.6 320.7L664.3 326C664.4 326.7 664.1 327.3 663.5 327.6L658.8 329.9C658.2 330.2 657.9 330.8 658 331.5 658.1 332.1 658.6 332.7 659.2 332.8L661.5 333.5 664.5 334.4C664.8 334.5 665 334.7 665.3 334.9 665.5 335.1 665.6 335.4 665.7 335.7L666.6 341.2C666.7 341.9 667.2 342.4 667.9 342.5 668.6 342.6 669.1 342.2 669.4 341.6Z"/></g></svg>