<svg width="96" height="96" xmlns="http://www.w3.org/2000/svg" xmlns:xlink="http://www.w3.org/1999/xlink" xml:space="preserve" overflow="hidden"><g transform="translate(-311 -582)"><path d="M358 594.5C354.3 592.7 350.5 591.5 346.7 591 357.7 601.9 361 619 353.7 633.7 346.5 648.4 330.7 656 315.5 653.9 318.2 656.6 321.5 659 325.1 660.8 343.4 669.9 365.6 662.4 374.6 644.1 383.6 625.8 376.3 603.7 358 594.5Z" fill="#FFFFFF"/><path d="M397.9 636.5C397.7 636.2 397.7 635.8 397.9 635.5L399.8 632.7C400 632.3 400 631.9 399.8 631.6 399.6 631.3 399.1 631.1 398.8 631.2L395.7 632C395.3 632.1 394.9 631.9 394.7 631.6L392.8 628.8C392.5 628.4 392.1 628.3 391.7 628.4 391.3 628.5 391 628.9 391 629.3L390.8 632.7C390.8 633.1 390.5 633.4 390.1 633.6L387 634.3C386.6 634.4 386.3 634.7 386.3 635.2 386.3 635.6 386.5 636 386.9 636.1L388.2 636.8 389.9 637.7C390 637.8 390.2 637.9 390.3 638.1 390.4 638.3 390.4 638.4 390.4 638.6L390.4 642C390.4 642.4 390.6 642.8 391 642.9 391.4 643 391.8 642.9 392.1 642.6L394.3 639.9C394.6 639.6 395 639.5 395.4 639.6L398.7 640.8C399.1 640.9 399.5 640.8 399.8 640.5 400.1 640.2 400.1 639.7 399.9 639.4L397.9 636.5Z" fill="#FFFFFF"/><path d="M388.4 611.6 391.1 606.7C391.4 606.1 392 605.8 392.7 605.9L398.2 606.8C398.9 606.9 399.5 606.6 399.8 606 400.1 605.4 400 604.6 399.6 604.2L395.8 600.1C395.4 599.7 395.3 599 395.5 598.4L397.6 593.3C397.8 592.7 397.7 592 397.3 591.6 396.9 591.2 396.1 591 395.6 591.3L390.9 593.6C390.3 593.9 389.6 593.7 389.2 593.3L385.4 589.5C384.9 589 384.1 588.9 383.5 589.1 382.9 589.4 382.6 590.1 382.6 590.7L383.3 596C383.4 596.7 383.1 597.3 382.5 597.6L377.8 599.9C377.2 600.2 376.9 600.8 377 601.5 377.1 602.1 377.6 602.7 378.2 602.8L380.5 603.5 383.5 604.4C383.8 604.5 384 604.7 384.3 604.9 384.5 605.1 384.6 605.4 384.7 605.7L385.6 611.2C385.7 611.9 386.2 612.4 386.9 612.5 387.6 612.6 388.1 612.2 388.4 611.6Z" fill="#FFFFFF"/></g></svg>